<?xml version='1.0' encoding='utf-8'?>
<svg xmlns="http://www.w3.org/2000/svg" viewBox="0 0 3014 3014"> <path transform="scale(2.9441)" d="m-0-0h1024v1024h-1024v-1024z" fill="#FEFEFE"/> <path transform="scale(2.9441)" d="m496.37 123.71c2.344-0.397 5.047-0.217 7.432-0.274l15.238-0.045c54.846 1.07 111.85 24.363 151.52 62.392 7.326 7.021 14.189 14.57 20.394 22.601 2.218 2.871 4.401 5.826 6.361 8.881 1.079 1.684 2.286 4.764 3.791 6 1.453 1.194 4.002 2.068 5.756 2.904l14.462 6.758 20.795 10.503 68.375 39.636 20.458 12.68c0.307 20.841-0.098 41.77-2.468 62.501l-7.369 45.041 84.925-31.88c-0.501 1.961-2.186 4.161-3.231 5.905l-6.947 11.58-42.444 71.102 68.096 29.972c-0.358 0.596-2.196 1.082-2.865 1.349l-12.086 4.486-21.562 8.148-57.321 19.336-2.382 7.408c-7.145 23.806-16.666 47.463-26.792 70.16-10.398 23.308-21.801 46.647-34.963 68.536-32.779 54.51-73.816 102.38-121.52 144.36-35.661 31.382-74.7 59.174-116.58 81.674l-13.697 6.796-1.777-0.759c-4.032-1.818-7.958-4.196-11.886-6.255l-37.315-21.617c-88.004-55.046-162.95-132.8-212.26-224.35-14.786-27.454-27.814-56.329-38.92-85.468l-12.743-35.909c-0.24-0.627-1.164-3.717-1.574-4.043-0.616-0.489-2.654-0.947-3.454-1.242l-9.829-3.749-39.49-14.77c-12.437-4.45-25.312-8.677-37.374-14.052l66.305-26.941-54.114-91.5c2.316 0.317 4.967 1.644 7.19 2.474l15.464 5.84 36.213 13.12c8.532 3.123 17.081 6.677 25.786 9.224l-8.74-106.78c7.619-6.494 17.677-11.727 26.255-16.947 33.573-20.428 68.364-39.543 104.69-54.645 2.047-8.052 7.34-13.481 12.582-19.641 40.013-47.026 98.251-75.595 159.61-80.496z" fill="#01004C"/> <path transform="scale(2.9441)" d="m820.56 472.7c4.878 0.771 9.445 2.656 14.037 4.407l18.539 7.213c3.188 1.272 7.343 2.385 10.205 4.203l-4.173 1.406c-11.416-5.075-24.152-7.908-35.173-13.801-1.733-0.927-2.868-1.559-3.435-3.428z" fill="#FEFEFE"/> <path transform="scale(2.9441)" d="m329.87 646.49c-18.258-29.533-34.685-60.252-47.369-92.638l6.187 2.348c2.233 10.33 8.789 20.831 13.597 30.229l21.723 42.961c2.348 5.017 6.479 11.474 5.862 17.1z" fill="#FECA1C"/> <path transform="scale(2.9441)" d="m741.47 458.78 116.84-48.213c-0.996 1.99-2.373 3.831-3.61 5.679-20.955 10.532-43.168 18.837-64.926 27.506-12.807 5.103-25.473 11.262-38.943 14.426-2.431 0.571-6.419 1.703-8.794 0.882l-0.565-0.28z" fill="#FEFEFE"/> <path transform="scale(2.9441)" d="m173.74 422-7.248-11.284 118.54 49.339c-3.913 1.294-43.564-12.75-50.004-14.921-0.21-0.234-1.644-0.663-2.033-0.808l-7.597-2.694c-17.584-5.977-34.733-11.855-51.656-19.632z" fill="#FEFEFE"/> <path transform="scale(2.9441)" d="m699.86 254.4-0.108-2.791 0.801-0.362c14.686 5.86 28.946 13.581 42.816 21.166 18.265 9.988 36.292 20.4 53.62 31.952 2.877 1.918 7.228 3.957 9.525 6.39-0.13 33.822-4.652 69.322-13.472 101.99-1.018 0.954-2.19 1.248-3.483 1.671-0.113-0.23-0.324-0.433-0.341-0.689-0.022-0.329 0.523-1.875 0.626-2.256l1.693-6.755 3.267-17.55c4.021-24.47 7.736-48.233 7.778-73.096l-102.72-59.672z" fill="#FEFEFE"/> <path transform="scale(2.9441)" d="m659.4 288.6c1.363 0.025 2.76 0.085 4.107-0.163 9.153-1.687 10.928-11.668 15.444-17.8l0.594-0.778-0.038 33.62c-0.032 4.705-0.644 10.168-0.098 14.802-0.104 2.995 0.304 7.12-0.473 9.968-0.485 1.778-1.745 3.502-2.706 5.057-2.398 3.881-6.589 7.922-11.229 8.707-1.942 0.329-3.223-0.502-4.767-1.544l-0.537-0.359-0.314-0.228 0.017-51.282z" fill="#06A3C3"/> <path transform="scale(2.9441)" d="m702.09 312.24 47.635 26.432c-1.747 13.583-5.032 27.295-8.312 40.596-9.147 37.106-21.44 72.247-36.684 107.27-0.459-3.288 1.005-6.893 1.896-10.042l6.024-20.012 12.041-40.692 10.675-41.595 4.547-22.842c0.249-1.266 1.314-4.627 1.112-5.644-0.027-0.139-0.199-0.199-0.3-0.298-6.821-6.681-14.557-13.456-22.004-19.41l-11.13-8.499c-1.635-1.239-4.277-2.896-5.271-4.7l-0.229-0.566z" fill="#FEFEFE"/> <path transform="scale(2.9441)" d="m235.33 417.94c-1.2-0.439-2.13-0.808-3.183-1.554-8.268-35.17-14.968-70.196-15.705-106.45l31.952-19.191 61.874-33.438c3.812-1.886 9.416-5.503 13.456-6.135l0.184 1.261c-30.185 16.581-60.535 34.361-88.976 53.794-3.015 2.06-7.59 4.352-9.947 7.046l0.895 34.261 4.738 41.761c0.421 2.984 5.075 27.992 4.712 28.641z" fill="#FEFEFE"/> <path transform="scale(2.9441)" d="m345.49 341.96c3.518 2.996 6.935 4.437 11.423 5.446 1.384 0.311 3.524-0.458 4.674-1.235 1.391-0.637 2.946-0.974 4.421-1.384l-0.038 30.214c0.213 3.15 1.818 6.292 3.359 8.986 5.025 8.78 12.465 16.114 20.122 22.618-5.217 3.272-10.555 6.878-15.07 11.074l-0.602 0.565c-9.456-9.024-23.108-15.914-27.218-28.979l-0.223-0.725c-1.805-5.718-0.979-13.074-0.961-19.074l0.113-27.506z" fill="#413383"/> <path transform="scale(2.9441)" d="m235.02 445.13c6.44 2.171 46.091 16.215 50.004 14.921l1.432 0.7 13.973 34.551-48.065-11.142-11.117-2.645c-1.662-0.403-3.69-0.707-5.211-1.478 0.529-0.604 0.283-0.462 0.954-0.756 5.278-2.311 9.18-3.862 13.137-8.183-1.829-6.137-5.214-11.908-8.877-17.137-1.979-2.825-4.294-5.358-5.986-8.382l-0.244-0.449z" fill="#FC7A02"/> <path transform="scale(2.9441)" d="m288.68 556.2 26.268 9.51c-0.983 6.907-2.101 13.945-1.798 20.943 0.564 13.044 6.662 26.489 14.475 36.824 5.4 7.143 12.315 13.201 19.871 17.968 2.567 1.62 6.354 3.22 8.505 5.248 3.61 3.406 6.769 8.951 9.845 12.965l17.415 21.673c-2.867 0.248-5.694-0.963-8.362-1.927-8.937-3.228-17.836-7.89-25.569-13.408-3.553-2.536-8.217-7.831-12.231-8.862-0.723-0.476-1.414-1.794-1.924-2.537l-5.313-8.107c0.617-5.626-3.514-12.083-5.862-17.1l-21.723-42.961c-4.808-9.398-11.364-19.899-13.597-30.229z" fill="#FC7A02"/> <path transform="scale(2.9441)" d="m236.32 481.87c25.074 7.827 48.831 17.963 71.811 30.747l13.714 25.856-2.082 6.187-63.25-21.155-8e-3 -0.026c0.191-2.362-0.532-4.936-1.085-7.235-3.11-12.945-11.8-23.179-18.879-34.029l-0.221-0.345z" fill="#FC7A02"/> <path transform="scale(2.9441)" d="m779.89 572.87 9.636-23.871c1.772-4.768 3.103-10.201 5.298-14.749 0.656-1.359 1.136-1.485 2.425-2.2l0.759 0.449c-0.674 4.49-2.588 9.104-4.087 13.396l-11.506 30.11c-6.582 16.996-14.437 33.35-22.779 49.547-41.076 79.761-100.68 147.75-172.77 201l-36.826 25.268c-12.144 7.928-24.862 16.059-38.076 22.016-6.154-2.171-12.515-6.478-18.148-9.801-13.906-8.204-27.647-16.591-40.82-25.938-19.041-13.51-37.578-27.145-55.308-42.376-22.072-18.961-42.122-39.751-61.091-61.782-31.713-36.833-59.013-76.99-79.993-120.94l-31.139-76.676 4.494 1.504 21.928 53.525c8.261 19.881 18.557 38.556 29.194 57.227 5.742 10.077 11.393 20.46 18.047 29.97 1.129 3.059 3.515 6.12 5.298 8.851l17.106 24.099c6.523 8.761 13.605 16.729 20.703 25.006l15.821 18.255c31.148 33.495 66.596 63.312 104.69 88.618l49.196 29.764 41.062-24.642c43.692-28.472 85.389-63.184 120.43-101.85l19.622-23.397c15.332-18.69 29.988-38.435 42.323-59.246l11.33-19.572c1.785-3.267 3.817-6.294 4.597-9.986l28.58-61.575z" fill="#FEFEFE"/> <path transform="scale(2.9441)" d="m659.38 339.88 0.314 0.228 0.537 0.359c1.544 1.042 2.825 1.873 4.767 1.544 4.64-0.785 8.831-4.826 11.229-8.707 0.961-1.555 2.221-3.279 2.706-5.057 0.777-2.848 0.369-6.973 0.473-9.968l0.582 49.1 7e-3 15.877c-0.016 3.71 0.139 7.486-0.943 11.078-1.393 4.628-5.392 9.281-8.589 12.783l-20.86 19.174c-7.053-6.516-14.895-12.327-23.951-15.74 13-9.871 30.406-24.255 32.897-41.414 0.984-6.774 0.515-14.103 0.55-20.946 0.013-2.625-0.303-5.766 0.281-8.311z" fill="#413383"/> <path transform="scale(2.9441)" d="m345.47 299.7-0.208-52.657c-0.037-5.27-1.005-12.764 0.349-17.726 0.738-2.703 3.415-5.328 5.203-7.371l11.032-11.972c38.795-39.282 92.005-64.817 147.82-65.069 53.427-0.242 109.04 20.476 147.2 58.399 6.937 6.894 13.725 14.393 18.848 22.749 1.398 2.28 3.249 5.136 3.859 7.749 0.748 3.202 0.288 7.657 0.293 11.011l-0.44 7.916c-1.874-5.865-2.239-12.061-5.09-17.628-3.847-7.513-10.535-14.422-16.593-20.205-14.989-14.31-32.068-26.776-50.485-36.273-47.183-24.331-103.49-30.076-154.12-13.837-20.515 6.58-41.025 16.693-58.479 29.376-10.271 7.463-19.479 16.17-28.357 25.215l-9.383 10.323c-1.621 1.881-3.672 3.945-4.78 6.166-0.727 1.457-0.951 3.04-1.186 4.631l-3.603 35.813-0.781 14.606c-0.139 2.964-0.025 5.971-1.095 8.784z" fill="#FEFEFE"/> <path transform="scale(2.9441)" d="m173.74 422c16.923 7.777 34.072 13.655 51.656 19.632l7.597 2.694c0.389 0.145 1.823 0.574 2.033 0.808l0.244 0.449c1.692 3.024 4.007 5.557 5.986 8.382 3.663 5.229 7.048 11 8.877 17.137-3.957 4.321-7.859 5.872-13.137 8.183-0.671 0.294-0.425 0.152-0.954 0.756l-2.067 0.214 0.074 0.62 2.269 1.003 0.221 0.345c7.079 10.85 15.769 21.084 18.879 34.029 0.553 2.299 1.276 4.873 1.085 7.235l-98.035-33.862 45.956-16.097-30.684-51.528z" fill="#FEAC09"/> <path transform="scale(2.9441)" d="m235.33 417.94c0.363-0.649-4.291-25.657-4.712-28.641l-4.738-41.761-0.895-34.261c2.357-2.694 6.932-4.986 9.947-7.046 28.441-19.433 58.791-37.213 88.976-53.794 1.427 8.175 0.553 17.762 0.602 26.111l-75.352 46.999c1.907 23.945 6.221 48.345 11.705 71.709l8.548 34.363-34.081-13.679z" fill="#413383"/> <path transform="scale(2.9441)" d="m699.86 254.4 102.72 59.672c-0.042 24.863-3.757 48.626-7.778 73.096l-3.267 17.55-1.693 6.755c-0.103 0.381-0.648 1.927-0.626 2.256 0.017 0.256 0.228 0.459 0.341 0.689l-0.025 0.081-24.223 10.122c-1.708 0.718-5.958 3.218-7.621 3.065l8.507-33.596c4.746-21.594 7.863-44.332 9.551-66.367l-76.226-43.463 0.338-29.86z" fill="#413383"/> <path transform="scale(2.9441)" d="m379.46 339.72c2.401 2.665 4.031 6.611 5.884 9.733 2.884 4.86 5.969 9.251 9.65 13.547 12.615 14.725 33.282 23.945 52.412 25.36 22.209 1.642 44.959 0.709 67.245 0.684l31.289-4e-3c10.799 8e-3 21.285 0.201 31.921-2.085 16.765-3.603 32.311-10.866 45.283-22.164 8.211-7.152 14.864-16.314 20.347-25.672 0.824-1.405 2.343-3.338 2.862-4.812 0.413-1.175 2e-3 -4.525 3e-3 -5.971l0.019-20.659 0.01-8.968c0-1.105-0.225-2.681 0.051-3.709l0.385-0.888-0.035 41.327 0.156 17.803c-4e-3 3.509 0.265 7.357-0.692 10.758-1.763 6.265-6.493 12.185-11.04 16.701-10.548 10.476-26.25 19.811-40.803 23.444-9.87 2.464-20.153 2.303-30.252 2.329l-30.352 0.021-82.053-0.023c-22.74-0.158-46.876-7.967-62.961-24.43-3.339-3.417-7.441-8.211-8.955-12.839-0.974-2.975-0.502-6.984-0.491-10.11l0.117-19.373z" fill="#E24122"/> <path transform="scale(2.9441)" d="m299.13 678.55c2.082 1.253 3.336 3.382 4.759 5.293l6.856 8.907c29.975 37.554 65.537 70.374 104.09 98.924 22.845 16.919 46.811 32.651 71.797 46.244l18.051 9.549c2.184 1.118 4.974 3.061 7.399 3.332 15.805-6.736 30.49-15.715 45.033-24.787l41.015-27.365c18.744-13.863 36.31-29.158 53.509-44.873 19.935-18.214 39.226-37.631 56.228-58.649 9.977-12.333 20.066-24.993 28.963-38.133 4.772-7.048 8.639-15.753 14.129-22.147l0.355-0.399c-0.78 3.692-2.812 6.719-4.597 9.986l-11.33 19.572c-12.335 20.811-26.991 40.556-42.323 59.246l-19.622 23.397c-35.041 38.67-76.738 73.382-120.43 101.85l-41.062 24.642-49.196-29.764c-38.098-25.306-73.546-55.123-104.69-88.618l-15.821-18.255c-7.098-8.277-14.18-16.245-20.703-25.006l-17.106-24.099c-1.783-2.731-4.169-5.792-5.298-8.851z" fill="#FE3F9A"/> <path transform="scale(2.9441)" d="m704.73 486.54-13.285 32.444-32.432-81.767 10.582-9.31c8.97-8.242 19.523-18.484 23.548-30.286 1.291-3.786 1.121-8.038 1.174-11.989l0.152-16.89 0.356-60.384 7.266 3.882 0.229 0.566c0.994 1.804 3.636 3.461 5.271 4.7l11.13 8.499c7.447 5.954 15.183 12.729 22.004 19.41 0.101 0.099 0.273 0.159 0.3 0.298 0.202 1.017-0.863 4.378-1.112 5.644l-4.547 22.842-10.675 41.595-12.041 40.692-6.024 20.012c-0.891 3.149-2.355 6.754-1.896 10.042z" fill="#FEAC09"/> <path transform="scale(2.9441)" d="m718.7 334.1 4.549 13.992c0.289 0.655 1.188 2.999 1.675 3.395 0.243 0.198 1.906 0.501 2.307 0.61 2.053 0.559 4.324 1.083 6.27 1.941 1.091 0.481 1.963 0.801 2.4 1.958-3.209 1.965-9.179 1.565-11.901 3.915-0.348 0.3-0.833 1.852-1.019 2.335-0.95 2.473-2.965 11.398-4.73 12.42l-0.597-1.42c-0.744-3.459-1.636-9.623-3.586-12.539-1.904-2.845-13.904-4.562-17.213-5.21 4.813-1.245 10.808-1.469 15.137-4.019 4.314-2.541 5.559-12.782 6.708-17.378z" fill="#01004C"/> <path transform="scale(2.9441)" d="m854.69 416.25-34.552 55.278 0.416 1.177c0.567 1.869 1.702 2.501 3.435 3.428 11.021 5.893 23.757 8.726 35.173 13.801l-142.22 48.343c-4.301 2.303-10.002 3.561-14.693 5.158l-3.277-7.189 4.511-7.883c1.276-2.224 2.935-5.529 4.888-7.16 3.936-3.289 9.656-5.908 14.115-8.589 15.403-9.259 31.203-17.332 47.492-24.906 9.591-4.459 19.505-8.312 28.762-13.449-1.79-0.077-4.224 0.866-5.993 1.285l-12.723 2.808-24.958 4.198c-6.304 1.216-12.386 3.001-18.541 4.789-0.675 0.845-14.866 5.434-16.963 6.193l13.942-29.734c2.107-3.578 4.133-3.912 7.963-5.014l0.565 0.28c2.375 0.821 6.363-0.311 8.794-0.882 13.47-3.164 26.136-9.323 38.943-14.426 21.758-8.669 43.971-16.974 64.926-27.506z" fill="#FEAC09"/> <path transform="scale(2.9441)" d="m736.52 487.34c-0.675 0.845-14.866 5.434-16.963 6.193l13.942-29.734 0.506 0.035 44.064 1.267c-13.487 6.098-29.42 10.446-40.942 20.18l-0.607 2.059z" fill="#FC7A02"/> <path transform="scale(2.9441)" d="m703.48 528.36c3.362 0.868 8.929-2.854 12.055-4.295 11.786-5.432 23.972-10.041 36.463-13.561 6.449-1.818 13.099-3.7 19.792-4.356l-45.438 25.7c-2.059 1.192-7.188 3.243-8.65 4.946-0.362 0.421-0.509 0.987-0.763 1.48-4.301 2.303-10.002 3.561-14.693 5.158l-3.277-7.189 4.511-7.883z" fill="#FC7A02"/> <path transform="scale(2.9441)" d="m441.42 593.58-0.31 0.455c-10.852 15.634-28.122 30.439-47.349 33.666-14.636 2.457-30.734-1.284-42.777-9.971-11.171-8.058-19.463-22.087-21.61-35.673-1.146-7.25-0.667-14.488 1.32-21.531 2.82-9.996 7.596-18.92 11.646-28.418l12.193-30.636 10.773-28.776c2.731-7.975 5.109-16.117 8.261-23.939 1.293-3.21 2.775-6.097 4.843-8.884 7.698-10.374 19.375-17.414 32.233-19.138 3.969-0.533 8.153-0.297 12.156-0.313l20.389-0.051 69.94 0.091 61.557-0.064c10.285-0.017 21.476-0.89 31.674 0.395 9.987 1.259 19.782 4.748 27.732 11.034 4.775 3.775 9.83 8.951 12.778 14.315 2.619 4.763 4.183 10.22 6.194 15.277l14.029 35.853 26.037 65.079c1.064 3.062 1.718 6.211 2.069 9.432 1.331 12.208-3.769 26.088-11.433 35.513-9.673 11.895-24.49 19.432-39.715 20.87-13.947 1.317-28.357-2.851-39.187-11.796-4.99-4.122-10.421-9.384-14.198-14.623 2.968 0.847 5.8 4.173 8.283 6.042 11.512 8.666 25.009 14.005 39.55 13.658 12.875-0.307 24.73-5.537 33.608-14.885 8.003-8.427 15.136-21.303 14.8-33.189-1.282-6.887-4.337-13.046-7.011-19.47l-15.224-35.534-14.505-36.469c-2.812-6.958-5.503-14.302-9.305-20.788-3.498-5.966-8.399-10.582-14.057-14.49-7.996-5.523-16.755-9.257-26.366-10.74-10.099-1.558-20.74-0.87-30.94-0.882l-48.433-0.088-60.619-0.084c-13.151-6e-3 -27.881-1.055-40.799 1.465-13.696 2.671-26.9 10.593-34.641 22.329-4.428 6.712-7.912 14.316-11.462 21.531l-19.255 41.027c-5.301 11.538-12.08 23.583-15.612 35.762-1.643 5.667-2.438 13.755-1.528 19.642l0.104 0.249c1.72 13.555 7.705 25.23 18.671 33.678 11.036 8.502 25.43 12.054 39.162 10.181 14.03-1.913 26.277-9.543 36.63-18.882 2.85-2.572 6.24-6.699 9.704-8.23z" fill="#FEFEFE"/> <path transform="scale(2.9441)" d="m345.47 299.7c1.07-2.813 0.956-5.82 1.095-8.784l0.781-14.606 3.603-35.813c0.235-1.591 0.459-3.174 1.186-4.631 1.108-2.221 3.159-4.285 4.78-6.166l9.383-10.323c8.878-9.045 18.086-17.752 28.357-25.215 17.454-12.683 37.964-22.796 58.479-29.376 50.635-16.239 106.94-10.494 154.12 13.837 18.417 9.497 35.496 21.963 50.485 36.273 6.058 5.783 12.746 12.692 16.593 20.205 2.851 5.567 3.216 11.763 5.09 17.628l0.44-7.916-0.319 25.044-0.594 0.778c-4.516 6.132-6.291 16.113-15.444 17.8-1.347 0.248-2.744 0.188-4.107 0.163l0.097-41.101 0.05-7.519c6e-3 -0.643 0.212-2.059 0.024-2.571-0.389-1.063-3.066-3.206-4.015-4.156-4.343-4.35-9.224-8.292-13.954-12.212-36.404-30.167-82.038-48.093-129.54-48.03-40.351 0.052-80.235 13.556-112.86 37.281-11.636 8.464-21.989 18.354-33.359 27.05l0.165 107.44c-1.475 0.41-3.03 0.747-4.421 1.384-1.15 0.777-3.29 1.546-4.674 1.235-4.488-1.009-7.905-2.45-11.423-5.446l0.021-16.605-0.044-25.651z" fill="#09B6E0"/> <path transform="scale(2.9441)" d="m345.51 325.35c3.813 7.345 9.939 15.285 16.076 20.816-1.15 0.777-3.29 1.546-4.674 1.235-4.488-1.009-7.905-2.45-11.423-5.446l0.021-16.605z" fill="#1C68A0"/> <defs> <linearGradient id="b" x1="360.3" x2="295.37" y1="505.98" y2="316.33" gradientUnits="userSpaceOnUse"> <stop stop-color="#FF8500" offset="0"/> <stop stop-color="#FF9E03" offset="1"/> </linearGradient> </defs> <path transform="scale(2.9441)" d="m304.84 318.69 23.342-14.626 0.148 56.145-0.057 18.086c-4e-3 4.84-0.135 9.687 1.148 14.399 2.859 10.495 9.872 20.403 17.71 27.792 5.194 4.896 11.206 8.753 17.326 12.373l-24.6 66.363-4.988 13.711c-0.487 1.36-1.105 4.099-2.036 5.115l-15.45-31.041c-15.594-35.196-28.08-70.825-35.858-108.57-2.798-13.583-5.304-27.176-6.219-41.035 1.821-1.954 5.251-3.57 7.567-5.053l21.967-13.657z" fill="url(#b)"/> <path transform="scale(2.9441)" d="m287.09 352.56c2.893-1.285 6.741-2.572 9.185-4.556 3.959-3.214 6.133-9.059 8.286-13.547 2.72 6.91 3.384 11.789 10.773 15.034l8.741 2.835c-3.84 2.254-10.479 4.687-13.414 7.838-2.512 2.696-3.953 7.953-4.869 11.528l-0.491 2.085c-1.815-4.157-3.926-10.35-7.247-13.515-2.502-2.384-7.313-4.117-10.489-5.631-0.58-0.864-0.449-1.067-0.475-2.071z" fill="#01004C"/> <path transform="scale(2.9441)" d="m304.84 318.69 0.198 0.821c-1.905 1.603-3.554 2.785-5.793 3.903l-2.288 1.162-3.698 19.688-0.078-8.455-5.967 3.552c0.048 4.299 0.463 8.944-0.126 13.195 0.026 1.004-0.105 1.207 0.475 2.071 4.085 29.36 8.914 59.229 16.705 87.861l6.914 22.876 4.558 14.176c0.71 2.357 1.836 4.994 1.643 7.467-15.594-35.196-28.08-70.825-35.858-108.57-2.798-13.583-5.304-27.176-6.219-41.035 1.821-1.954 5.251-3.57 7.567-5.053l21.967-13.657z" fill="#FEFEFE"/> <path transform="scale(2.9441)" d="m707.64 601.97c4.001-12 5.371-22.978 4.71-35.634l28.009-8.357c-34.117 89.732-94.709 166.81-172.45 223.03-17.823 12.89-36.279 25.01-55.861 35.079-12.114-6.158-23.685-13.337-35.147-20.62-45.907-29.169-86.58-65.449-119.58-108.78l-14.322-20.163c-1.995-3.033-4.304-6.133-5.892-9.388 4.014 1.031 8.678 6.326 12.231 8.862 7.733 5.518 16.632 10.18 25.569 13.408 2.668 0.964 5.495 2.175 8.362 1.927 8.412 10.075 17.397 18.988 26.885 28.036 25.552 24.367 52.85 44.414 82.954 62.765l13.351 7.885c1.854 1.008 3.833 2.384 5.905 2.743 11.319-4.93 22.532-12.504 32.798-19.352 24.393-16.271 47.549-33.877 68.779-54.171l23.039-23.918 20.729-25.923c2.799-3.671 5.249-8.465 8.374-11.707 3.111-3.228 8.46-5.587 12.124-8.315 12.572-9.359 23.877-22.631 29.435-37.406z" fill="#FEAC09"/> <path transform="scale(2.9441)" d="m707.64 601.97c1.79 3.693-0.565 9.015-1.888 12.809-5.818 16.678-14.139 32.675-25.608 46.137-2.837 3.329-5.716 6.854-9.069 9.682-4.145 3.496-9.423 6.326-14.292 8.653-6.601 3.154-12.633 4.906-19.805 6.07l20.729-25.923c2.799-3.671 5.249-8.465 8.374-11.707 3.111-3.228 8.46-5.587 12.124-8.315 12.572-9.359 23.877-22.631 29.435-37.406z" fill="#FC7A02"/> <path transform="scale(2.9441)" d="m251.89 591.35 23.496 11.638c2.686 1.316 6.801 2.607 8.955 4.671 2.286 2.191 4.047 6.283 5.58 9.047l11.112 19.945 20.233 31.935c48.557 69.658 115.04 126.39 190.55 164.95 6.057-2.15 11.759-5.541 17.299-8.778l23.315-14.422c66.962-43.277 122.71-100.3 164.18-168.39l22.327-41.086 5.497-11.292c0.431-0.892 1.287-3.119 1.977-3.704 1.972-1.672 5.976-2.701 8.435-3.648l25.042-9.349-28.58 61.575-0.355 0.399c-5.49 6.394-9.357 15.099-14.129 22.147-8.897 13.14-18.986 25.8-28.963 38.133-17.002 21.018-36.293 40.435-56.228 58.649-17.199 15.715-34.765 31.01-53.509 44.873l-41.015 27.365c-14.543 9.072-29.228 18.051-45.033 24.787-2.425-0.271-5.215-2.214-7.399-3.332l-18.051-9.549c-24.986-13.593-48.952-29.325-71.797-46.244-38.551-28.55-74.113-61.37-104.09-98.924l-6.856-8.907c-1.423-1.911-2.677-4.04-4.759-5.293-6.654-9.51-12.305-19.893-18.047-29.97-10.637-18.671-20.933-37.346-29.194-57.227z" fill="#413383"/> <path transform="scale(2.9441)" d="m475.07 615.22 58.433-0.042 11.408-0.111c1.069-0.014 3.269-0.325 4.238-0.063 0.149 0.04 0.188 0.245 0.282 0.368 19.402 25.443 39.88 54.326 68.921 69.33-3.132 4.81-9.251 9.446-13.522 13.389-21.698 20.031-43.949 38.039-68.612 54.294l-24.506 14.416c-18.158-9.948-35.674-21.932-52.169-34.408-9.003-6.809-18.181-13.712-26.653-21.17l-26.859-25.8c27.557-17.977 48.104-45.28 69.039-70.203z" fill="#413383"/> <path transform="scale(2.9441)" d="m473.24 668.66c6.259-0.513 13.478 1.515 18.563 5.134 5.653 4.023 9.523 10.789 10.605 17.572 1.211 7.596-0.778 16.627-5.494 22.778-4.972 6.485-11.317 9.576-19.292 10.689-5.944 0.571-12.583-1.294-17.44-4.735-6.051-4.287-10.357-11.229-11.522-18.566-1.297-8.166 0.602-16.065 5.591-22.683 4.839-6.419 11.229-9.231 18.989-10.189z" fill="#01004C"/> <path transform="scale(2.9441)" d="m458.8 686.62c1.438-2.913 3.375-5.438 6.111-7.251 4.149-2.748 10.003-3.773 14.852-2.521 4.934 1.275 9.073 4.098 11.685 8.483 3.063 4.396 4.023 9.535 3.157 14.784-0.843 5.112-4.434 10.282-8.7 13.125-4.138 2.759-9.075 3.291-13.886 2.242-5.765-1.256-10.467-4.936-13.449-9.979-2.239-3.786-2.875-9.332-1.77-13.623 0.473-1.838 1.189-3.551 2-5.26z" fill="#A5A7CA"/> <path transform="scale(2.9441)" d="m458.8 686.62c1.438-2.913 3.375-5.438 6.111-7.251 4.149-2.748 10.003-3.773 14.852-2.521 4.934 1.275 9.073 4.098 11.685 8.483-0.574 4.397-2.01 7.103-5.524 9.894-3.677 2.922-8.161 4.605-12.883 3.898-4.602-0.689-9.424-3.319-12.066-7.213-0.716-1.056-1.074-2.217-1.491-3.407l-0.684-1.883z" fill="#FEFEFE"/> <path transform="scale(2.9441)" d="m545.58 668.16c6.304-0.489 12.516 0.748 17.781 4.409 5.91 4.108 10.706 11.093 11.997 18.208 1.46 8.048-0.181 15.941-4.968 22.642-4.769 6.677-11.244 10.037-19.199 11.297-6.173 0.597-12.738-0.849-17.941-4.284-6.853-4.525-11.077-11.609-12.501-19.626-1.284-7.225 0.473-14.815 4.745-20.728 4.89-6.77 11.92-10.732 20.086-11.918z" fill="#01004C"/> <path transform="scale(2.9441)" d="m531.08 687.3c1.38-2.971 3.559-5.572 6.195-7.522 3.636-2.689 8.66-4.114 13.15-3.467l0.822 0.132c5.393 0.808 9.474 3.886 12.868 8.023 3.167 5.414 4.831 10.404 3.165 16.664-1.402 5.271-5.738 10.396-10.535 12.981-4.729 2.549-9.721 2.799-14.76 1.075-4.94-1.69-9.069-5.312-11.303-10.044-2.514-5.324-2.544-10.619-0.428-16.068l0.826-1.774z" fill="#A5A7CA"/> <path transform="scale(2.9441)" d="m531.08 687.3c1.38-2.971 3.559-5.572 6.195-7.522 3.636-2.689 8.66-4.114 13.15-3.467l0.822 0.132c5.393 0.808 9.474 3.886 12.868 8.023-0.729 4.582-1.742 8.087-5.645 11.06-3.761 2.866-8.28 4.077-12.973 3.395-4.215-0.613-9.397-3.589-11.83-7.084l-2.587-4.537z" fill="#FEFEFE"/> <path transform="scale(2.9441)" d="m379.29 304.58-0.062-47.846c3e-3 -2.032-0.43-12.86 0.066-13.828 0.365-0.713 1.703-1.775 2.333-2.397 5.403-5.342 11.666-9.961 17.694-14.571 32.819-25.099 71.952-40.681 113.68-40.335 47.359 0.392 97.234 21.098 130.47 55.068 0.912 0.931 3.511 3.086 3.922 4.088 0.446 1.086-0.071 5.503-0.088 6.896l-0.335 28.781-0.145 13.672-0.385 0.888c-0.276 1.028-0.051 2.604-0.051 3.709l-0.01 8.968-0.019 20.659c-1e-3 1.446 0.41 4.796-3e-3 5.971-0.519 1.474-2.038 3.407-2.862 4.812-5.483 9.358-12.136 18.52-20.347 25.672-12.972 11.298-28.518 18.561-45.283 22.164-10.636 2.286-21.122 2.093-31.921 2.085l-31.289 4e-3c-22.286 0.025-45.036 0.958-67.245-0.684-19.13-1.415-39.797-10.635-52.412-25.36-3.681-4.296-6.766-8.687-9.65-13.547-1.853-3.122-3.483-7.068-5.884-9.733l-0.168-35.136z" fill="#FEAC09"/> <path transform="scale(2.9441)" d="m507.9 192.72c10.607-0.295 21.975 0.464 32.385 2.469 29.78 5.736 57.445 18.131 81.31 36.892 6.089 4.787 12.295 9.674 16.703 16.118l0.667 1.037c0.895 1.77 0.404 4.7-0.195 6.519-2.701-1.548-5.178-3.806-7.691-5.68l-15.016-10.563c-13.454-8.729-27.337-16.373-42.366-22.047-13.914-5.254-28.478-8.572-43.068-11.304-37.464-5.1-75.733 6.956-108.03 25.578-9.691 5.588-18.728 12.97-28.652 17.99 0.936-3.415 1.596-6.276 4.059-8.983 28.076-30.856 68.949-45.848 109.89-48.026z" fill="#FEFEFE"/> <path transform="scale(2.9441)" d="m463.53 332.86 5.294-22.008-47.61-44.205 64.939-5.155 25.458-51.755c3.448 5.365 6.041 11.531 8.868 17.264l16.864 34.456 70.137 5.019-52.677 44.759 5.508 19.191 14.753 48.693-62.797-38.768-60.265 37.312 11.528-44.803z" fill="#01004C"/> <path transform="scale(2.9441)" d="m511.58 252.62c5.091 8.961 8.916 19.011 12.329 28.711 3.982-0.407 8.232-0.144 12.242-0.156l20.79 0.341-27.26 21.44c4.703 9.319 7.579 20.731 10.542 30.747l-26.972-19.026-0.901-0.485c-0.06-0.021-1.081-0.084-1.201-0.032-1.649 0.71-3.822 2.894-5.366 3.97l-21.853 15.329c3.413-9.907 5.871-20.439 10.306-29.935-2.337-3.107-6.466-5.819-9.524-8.22l-17.753-13.739 32.592-0.204 12.029-28.741z" fill="#FEFEFE"/> <path transform="scale(2.9441)" d="m560.31 330.42c3.466 0.229 7.294-0.508 10.74-1.039 22.239-3.428 42.664-15.668 58.375-31.462l8.411-8.939c2.82-3.205 5.317-6.447 9.129-8.545l-0.145 13.672-0.385 0.888c-0.276 1.028-0.051 2.604-0.051 3.709l-0.01 8.968-0.019 20.659c-1e-3 1.446 0.41 4.796-3e-3 5.971-0.519 1.474-2.038 3.407-2.862 4.812-5.483 9.358-12.136 18.52-20.347 25.672-12.972 11.298-28.518 18.561-45.283 22.164-10.636 2.286-21.122 2.093-31.921 2.085l-31.289 4e-3c-22.286 0.025-45.036 0.958-67.245-0.684-19.13-1.415-39.797-10.635-52.412-25.36-3.681-4.296-6.766-8.687-9.65-13.547-1.853-3.122-3.483-7.068-5.884-9.733l-0.168-35.136 0.465-0.355c3.301-2.603 5.618-6.695 9.243-8.701l0.513-0.29c2.051-1.075 4.767-0.954 6.906-0.221 7.231 2.479 11.262 10.646 16.331 15.965 9.928 10.417 22.675 15.592 36.407 19.01 4.677 1.164 9.576 2.417 14.373 2.867l-11.528 44.803 60.265-37.312 62.797 38.768-14.753-48.693z" fill="#FC7A02"/> <path transform="scale(2.9441)" d="m337.26 576.84-0.104-0.249c-0.91-5.887-0.115-13.975 1.528-19.642 3.532-12.179 10.311-24.224 15.612-35.762l19.255-41.027c3.55-7.215 7.034-14.819 11.462-21.531 7.741-11.736 20.945-19.658 34.641-22.329 12.918-2.52 27.648-1.471 40.799-1.465l60.619 0.084 48.433 0.088c10.2 0.012 20.841-0.676 30.94 0.882 9.611 1.483 18.37 5.217 26.366 10.74 5.658 3.908 10.559 8.524 14.057 14.49 3.802 6.486 6.493 13.83 9.305 20.788l14.505 36.469 15.224 35.534c2.674 6.424 5.729 12.583 7.011 19.47 0.336 11.886-6.797 24.762-14.8 33.189-8.878 9.348-20.733 14.578-33.608 14.885-14.541 0.347-28.038-4.992-39.55-13.658-2.483-1.869-5.315-5.195-8.283-6.042-1.658-0.974-3.577-4.116-4.823-5.669l-18.422-24.509c-3.683-0.643-7.891-0.277-11.659-0.303l-22.122-0.124-48.845-0.027-23.974 0.034c-0.838 0.032-1.284 0.27-1.847 0.887-6.031 6.61-10.795 14.958-17.121 21.155l-0.432 0.389c-3.464 1.531-6.854 5.658-9.704 8.23-10.353 9.339-22.6 16.969-36.63 18.882-13.732 1.873-28.126-1.679-39.162-10.181-10.966-8.448-16.951-20.123-18.671-33.678z" fill="#09B6E0"/> <path transform="scale(2.9441)" d="m587.42 450.6c5.01-0.461 9.988-0.26 14.456 2.307 5.459 3.137 9.785 8.527 11.265 14.693 1.321 5.504 0.241 12.047-2.782 16.795-3.866 6.069-9.514 9.533-16.502 10.99-5.231 0.204-9.937-0.212-14.674-2.694-4.362-2.285-8.713-6.507-10.151-11.312-1.97-6.586-1.276-13.213 2.041-19.206 3.49-6.307 9.7-9.561 16.347-11.573z" fill="#01004C"/> <path transform="scale(2.9441)" d="m603.48 464.11c1.22 4.333 1.197 7.254-1.015 11.394-2.055 3.844-5.876 7.575-10.174 8.643-2.891 0.719-5.539-0.359-7.9-2.01-3.594-2.515-6.148-6.02-6.732-10.426-0.225-1.7-0.063-3.47 0.056-5.175 1.053 1.468 2.121 3.08 3.429 4.335 2.631 2.523 6.633 2.928 10.103 2.656 5.296-0.416 9.084-5.688 12.233-9.417z" fill="#FC7A02"/> <path transform="scale(2.9441)" d="m577.72 466.54 0.098-0.492c0.857-3.501 2.622-6.047 5.722-7.927 3.38-2.05 8.092-2.823 11.919-1.648 4.039 1.24 6.222 4.052 8.026 7.641-3.149 3.729-6.937 9.001-12.233 9.417-3.47 0.272-7.472-0.133-10.103-2.656-1.308-1.255-2.376-2.867-3.429-4.335z" fill="#FECA1C"/> <path transform="scale(2.9441)" d="m626.4 486.2c5.29 0.233 10.523 0.945 14.847 4.32 4.725 3.687 7.359 8.898 7.891 14.836 0.549 6.144-1.606 13.743-5.652 18.433-4.378 5.076-9.912 7.323-16.521 7.831-5.736-4e-3 -10.704-1.23-15.252-4.908-4.617-3.733-7.687-9.759-8.11-15.676-0.435-6.066 2.102-12.567 5.979-17.144 4.518-5.335 10.071-7.17 16.818-7.692z" fill="#01004C"/> <path transform="scale(2.9441)" d="m640.14 501.95c0.883 4.649 1.49 9.064-1.39 13.199-2.273 3.264-5.714 5.142-9.609 5.661-3.675 0.489-7.966-0.519-10.891-2.82-3.347-2.632-4.902-6.551-5.31-10.699-0.088-0.899-0.165-1.835-0.063-2.734 1.488 1.543 2.238 3.268 4.259 4.293 3.677 1.864 10.924 2.496 14.831 0.993l0.533-0.223c3.52-1.357 5.671-4.621 7.64-7.67z" fill="#FC7A02"/> <path transform="scale(2.9441)" d="m612.88 504.55c-9e-3 -1.262 0.258-2.6 0.629-3.803 0.993-3.224 3.966-5.936 6.935-7.346 3.643-1.73 8.23-1.509 11.935-0.024 4.204 1.685 6.138 4.558 7.764 8.566-1.969 3.049-4.12 6.313-7.64 7.67l-0.533 0.223c-3.907 1.503-11.154 0.871-14.831-0.993-2.021-1.025-2.771-2.75-4.259-4.293z" fill="#FECA1C"/> <path transform="scale(2.9441)" d="m554.23 485.65c4.719-0.343 9.933 0.945 14.035 3.261 5.327 3.007 9.543 8.356 10.951 14.343 1.266 5.389 0.111 10.572-2.704 15.25-4.051 6.735-9.935 11.554-17.547 13.523-5.319 0.088-10.057-0.362-14.717-3.246-5.696-3.525-9.706-8.692-11.137-15.282-1.293-5.957 0.653-13.131 4-18.061 4.312-6.351 9.905-8.483 17.119-9.788z" fill="#01004C"/> <path transform="scale(2.9441)" d="m542.84 502.84 1.516 1.682c2.125 2.349 3.942 3.757 7.068 4.533 4.406 1.093 9.734 1.275 13.578-1.529 2.014-1.469 3.603-3.245 5.779-4.544l0.384-0.222c0.599 4.205 0.016 8.428-2.591 11.915-2.397 3.207-6.048 5.52-10.072 5.901-4.204 0.398-7.83-0.606-11.016-3.434-3.087-2.739-4.702-7.214-4.801-11.296l0.155-3.006z" fill="#FC7A02"/> <path transform="scale(2.9441)" d="m542.84 502.84c0.248-1.176 0.499-2.391 0.992-3.493 1.331-2.973 4.185-5.539 7.23-6.658 4.168-1.532 8.221-1.297 12.214 0.63 4.306 2.078 6.34 5.072 7.889 9.441l-0.384 0.222c-2.176 1.299-3.765 3.075-5.779 4.544-3.844 2.804-9.172 2.622-13.578 1.529-3.126-0.776-4.943-2.184-7.068-4.533l-1.516-1.682z" fill="#FECA1C"/> <path transform="scale(2.9441)" d="m580.52 566.3c-5.905-3.021-10.493-7.558-12.422-14.048-2.062-6.938-1.088-14.123 2.629-20.28 3.226-5.344 8.113-9.062 14.213-10.474 6.289-1.456 13.118-0.982 18.615 2.717 5.009 3.372 9.523 9.419 10.569 15.394 1.113 6.359-0.344 13.579-4.321 18.724-3.886 5.027-9.907 8.794-16.249 9.673l-0.431 0.041c-4.689 0.136-8.222 0.022-12.603-1.747z" fill="#01004C"/> <path transform="scale(2.9441)" d="m604.45 535.08c0.957 4.51 1.056 8.286-1.542 12.358-2.496 3.913-6.485 7.012-11.063 7.998-2.89 0.622-6.548-1.045-8.855-2.686-3.753-2.671-5.8-6.173-6.343-10.75-0.203-1.714-0.135-3.837 0.16-5.522 1.611 2.017 3.179 4.058 5.297 5.575 2.781 1.99 5.814 2.533 9.148 2.028 5.3-0.802 10.112-4.764 13.198-9.001z" fill="#FC7A02"/> <path transform="scale(2.9441)" d="m576.8 536.48 0.236-0.855c0.982-3.279 4.077-5.97 7.072-7.43 3.681-1.794 8.113-2.617 12.068-1.181 4.289 1.558 6.493 3.977 8.267 8.068-3.086 4.237-7.898 8.199-13.198 9.001-3.334 0.505-6.367-0.038-9.148-2.028-2.118-1.517-3.686-3.558-5.297-5.575z" fill="#FECA1C"/> <defs> <linearGradient id="a" x1="485.16" x2="531.02" y1="656.37" y2="522.19" gradientUnits="userSpaceOnUse"> <stop stop-color="#0068A3" offset="0"/> <stop stop-color="#007EB2" offset="1"/> </linearGradient> </defs> <path transform="scale(2.9441)" d="m454.07 554.38c1.806 1.062 4.703 0.655 6.778 0.655l15.417-0.018 40.451-0.113c10.814-8e-3 22.134-0.566 32.785 1.471 6.327 1.209 12 3.63 17.556 6.871 2.029 1.184 5.247 3.696 7.486 4.202 1.367 0.309 4.731-0.409 5.976-1.154 4.381 1.769 7.914 1.883 12.603 1.747l-0.456 0.112c-2.45 0.547-4.824 0.327-7.303 0.176 17.666 15.34 39.358 25.962 63.277 24.352 2.385-0.161 4.612-0.473 6.944-0.991l0.956-0.207c9.356-2.091 17.375-7.444 24.716-13.391 1.75-1.417 3.673-3.815 5.653-4.721 0.336 11.886-6.797 24.762-14.8 33.189-8.878 9.348-20.733 14.578-33.608 14.885-14.541 0.347-28.038-4.992-39.55-13.658-2.483-1.869-5.315-5.195-8.283-6.042-1.658-0.974-3.577-4.116-4.823-5.669l-18.422-24.509c-3.683-0.643-7.891-0.277-11.659-0.303l-22.122-0.124-48.845-0.027-23.974 0.034c-0.838 0.032-1.284 0.27-1.847 0.887-6.031 6.61-10.795 14.958-17.121 21.155l-0.432 0.389c-3.464 1.531-6.854 5.658-9.704 8.23-10.353 9.339-22.6 16.969-36.63 18.882-13.732 1.873-28.126-1.679-39.162-10.181-10.966-8.448-16.951-20.123-18.671-33.678l0.347-0.522 0.898 0.116 0.361 0.339c13.177 12.197 33.766 18.381 51.475 17.717 21.353-0.799 33.672-19.24 46.737-33.235l-0.121-0.89c6.014-1.783 11.365-3.39 17.117-5.976z" fill="url(#a)"/> <path transform="scale(2.9441)" d="m436.95 560.36c-5.247 0.361-10.749 0.614-15.988-0.027-14.959-1.83-29.641-10.134-38.752-22.092-8.655-11.357-13.083-24.024-10.929-38.455 2.194-14.698 9.443-27.553 20.842-37.148 11.713-9.859 25.301-14.988 40.687-13.595 15.217 1.379 29.02 8.804 38.782 20.562 9.117 10.981 14.169 26.486 12.715 40.739-1.516 14.864-9.458 28.725-20.997 38.117-2.845 2.316-6.057 4.127-9.243 5.923-5.752 2.586-11.103 4.193-17.117 5.976z" fill="#01004C"/> <path transform="scale(2.9441)" d="m423.19 471.22c3.642-0.193 7.755-0.543 11.307 0.364 1.232 1.81 0.905 4.491 0.917 6.677 0.029 5.161-0.708 11.818 0.589 16.741 2.632 2.739 7.613 1.854 11.185 1.839l15.54 0.186c0.585 1.643 0.318 3.797 0.32 5.542 4e-3 3.207 0.168 6.456-0.319 9.636-0.289 0.371-0.484 0.841-0.867 1.114-0.709 0.506-4.778 0.264-5.724 0.266-5.994 0.016-12.779-0.601-18.641 0.524-0.427 0.32-1.383 0.849-1.669 1.25-0.642 0.9-0.483 2.957-0.501 4.068l0.032 13.69c0.011 1.813 0.36 3.543-0.536 5.135l-1.701 0.247-8.747 0.037c-1.328-2e-3 -3.15 0.256-4.372-0.305-2.039-0.936-0.174-19.276-1.532-22.729-0.871-0.944-1.591-1.494-2.886-1.732-2.716-0.5-5.945-0.258-8.72-0.309l-14.467-0.559c-0.857-5.064-0.407-10.617-0.391-15.752 7.548-0.547 16.116 0.958 23.483-0.398 6.873-1.265 1.346-20.301 4.213-25.036l3.487-0.496z" fill="#FEFEFE"/> </svg>